<?xml version="1.0" encoding="UTF-8"?>
<svg xmlns="http://www.w3.org/2000/svg" xmlns:xlink="http://www.w3.org/1999/xlink" width="200pt" height="200pt" viewBox="0 0 200 200" version="1.1">
<g id="surface1">
<path style=" stroke:none;fill-rule:nonzero;fill:rgb(100%,100%,100%);fill-opacity:1;" d="M 99.996094 200 C 155.226562 200.007812 200.007812 155.234375 200.011719 100 C 200.015625 44.769531 155.242188 -0.0078125 100.007812 -0.0117188 C 44.777344 -0.0117188 0 44.761719 0 99.996094 C 0 155.222656 44.765625 199.992188 99.996094 200 "/>
<path style=" stroke:none;fill-rule:nonzero;fill:rgb(52.941176%,52.941176%,52.941176%);fill-opacity:1;" d="M 99.996094 3.535156 C 46.722656 3.535156 3.535156 46.722656 3.535156 99.996094 C 3.535156 153.265625 46.722656 196.453125 99.996094 196.453125 C 153.265625 196.453125 196.453125 153.265625 196.453125 99.996094 C 196.398438 46.746094 153.246094 3.589844 99.996094 3.535156 M 99.996094 198.390625 C 45.628906 198.390625 1.554688 154.316406 1.554688 99.949219 C 1.554688 45.582031 45.628906 1.511719 99.996094 1.511719 C 154.359375 1.511719 198.433594 45.582031 198.433594 99.949219 C 198.398438 154.300781 154.347656 198.351562 99.996094 198.390625 "/>
<path style=" stroke:none;fill-rule:nonzero;fill:rgb(52.941176%,52.941176%,52.941176%);fill-opacity:1;" d="M 99.996094 6.710938 C 48.457031 6.710938 6.679688 48.492188 6.679688 100.027344 C 6.679688 151.566406 48.457031 193.34375 99.996094 193.34375 C 151.53125 193.34375 193.3125 151.566406 193.3125 100.027344 C 193.253906 48.515625 151.507812 6.765625 99.996094 6.710938 M 99.996094 193.992188 C 48.097656 193.992188 6.03125 151.921875 6.03125 100.027344 C 6.03125 48.132812 48.097656 6.0625 99.996094 6.0625 C 151.890625 6.0625 193.960938 48.132812 193.960938 100.027344 C 193.902344 151.902344 151.867188 193.9375 99.996094 193.992188 "/>
<path style=" stroke:none;fill-rule:nonzero;fill:rgb(89.411765%,8.235294%,7.45098%);fill-opacity:1;" d="M 160.222656 80.988281 C 159.113281 77.515625 157.699219 74.148438 156.003906 70.921875 L 145.9375 80.988281 Z M 129.113281 43.996094 C 125.886719 42.296875 122.519531 40.882812 119.042969 39.777344 L 119.042969 54.097656 Z M 115.554688 57.554688 L 115.554688 38.859375 C 105.359375 36.175781 94.640625 36.175781 84.445312 38.859375 L 84.445312 57.554688 L 100.003906 73.113281 Z M 80.988281 39.765625 C 77.515625 40.878906 74.148438 42.292969 70.921875 43.996094 L 80.988281 54.0625 Z M 80.988281 58.984375 L 67.765625 45.761719 C 58.71875 51.15625 51.15625 58.71875 45.761719 67.765625 L 58.984375 80.988281 L 80.988281 80.988281 Z M 43.996094 70.886719 C 42.296875 74.113281 40.882812 77.484375 39.765625 80.957031 L 54.097656 80.957031 Z M 39.777344 118.988281 C 40.886719 122.460938 42.300781 125.828125 43.996094 129.054688 L 54.0625 118.988281 Z M 70.886719 155.96875 C 74.113281 157.671875 77.484375 159.085938 80.957031 160.199219 L 80.957031 145.890625 Z M 84.445312 142.414062 L 84.445312 161.082031 C 94.640625 163.765625 105.359375 163.765625 115.554688 161.082031 L 115.554688 142.433594 L 100.003906 126.886719 Z M 119.011719 160.199219 C 122.480469 159.082031 125.851562 157.664062 129.078125 155.96875 L 119.011719 145.902344 Z M 119.011719 140.980469 L 132.234375 154.203125 C 141.28125 148.8125 148.839844 141.25 154.226562 132.199219 L 141.015625 118.988281 L 119.011719 118.988281 Z M 156.003906 129.078125 C 157.699219 125.851562 159.109375 122.484375 160.222656 119.011719 L 145.902344 119.011719 Z M 142.445312 84.445312 L 126.886719 99.996094 L 142.445312 115.554688 L 161.140625 115.554688 C 163.808594 105.355469 163.808594 94.644531 161.140625 84.445312 Z M 137.558594 84.445312 L 119.011719 84.445312 L 119.011719 92.121094 L 124.449219 97.554688 Z M 124.449219 102.445312 L 119.011719 107.871094 L 119.011719 115.554688 L 137.589844 115.554688 Z M 107.878906 119.011719 L 102.445312 124.4375 L 115.554688 137.589844 L 115.554688 119.011719 Z M 97.554688 124.4375 L 92.128906 119.011719 L 84.445312 119.011719 L 84.445312 137.589844 Z M 80.988281 84.445312 L 62.441406 84.445312 L 75.550781 97.554688 L 80.988281 92.121094 Z M 75.550781 102.445312 L 62.441406 115.554688 L 80.988281 115.554688 L 80.988281 107.871094 Z M 57.554688 115.554688 L 73.113281 99.996094 L 57.554688 84.445312 L 38.859375 84.445312 C 36.175781 94.640625 36.175781 105.359375 38.859375 115.554688 Z M 92.128906 80.988281 L 97.554688 75.550781 L 84.445312 62.441406 L 84.445312 80.988281 Z M 102.445312 75.550781 L 107.878906 80.988281 L 115.554688 80.988281 L 115.554688 62.441406 Z M 115.554688 84.445312 L 106.449219 84.445312 L 100.003906 78.003906 L 93.5625 84.445312 L 84.445312 84.445312 L 84.445312 93.550781 L 78.003906 99.996094 L 84.445312 106.4375 L 84.445312 115.554688 L 93.5625 115.554688 L 100.003906 121.996094 L 106.449219 115.554688 L 115.554688 115.554688 L 115.554688 106.4375 L 121.996094 99.996094 L 115.554688 93.550781 Z M 58.984375 119.011719 L 45.761719 132.234375 C 51.160156 141.277344 58.71875 148.835938 67.765625 154.226562 L 80.988281 141.003906 L 80.988281 119.011719 Z M 141.015625 80.976562 L 154.238281 67.753906 C 148.84375 58.707031 141.28125 51.144531 132.234375 45.753906 L 119.011719 58.984375 L 119.011719 80.988281 Z M 141.015625 80.976562 "/>
<path style=" stroke:none;fill-rule:nonzero;fill:rgb(52.941176%,52.941176%,52.941176%);fill-opacity:1;" d="M 22.472656 93.683594 L 23.535156 93.886719 L 23.535156 93.753906 C 22.863281 93.382812 22.664062 93.25 22.71875 92.847656 L 22.71875 92.53125 L 25.503906 92.847656 C 25.785156 92.847656 25.785156 93.003906 25.785156 93.351562 L 25.929688 93.351562 L 26.109375 91.863281 L 25.964844 91.863281 C 25.875 92.199219 25.851562 92.320312 25.570312 92.285156 L 22.785156 91.972656 L 22.785156 91.660156 C 22.785156 91.246094 23.054688 91.167969 23.78125 90.957031 L 23.78125 90.820312 L 22.664062 90.820312 Z M 22.910156 85.855469 C 23.085938 85.890625 23.257812 85.78125 23.300781 85.609375 C 23.335938 85.425781 23.222656 85.25 23.042969 85.207031 C 22.917969 85.160156 22.78125 85.1875 22.6875 85.285156 C 22.59375 85.378906 22.5625 85.519531 22.613281 85.640625 C 22.660156 85.765625 22.777344 85.847656 22.910156 85.855469 M 23.109375 84.914062 C 23.285156 84.949219 23.453125 84.832031 23.488281 84.660156 C 23.523438 84.484375 23.410156 84.316406 23.238281 84.277344 C 23.0625 84.242188 22.894531 84.351562 22.855469 84.523438 C 22.820312 84.703125 22.933594 84.875 23.109375 84.914062 M 23.960938 86.132812 C 23.691406 86.066406 23.671875 86.011719 23.703125 85.652344 L 23.558594 85.652344 L 23.265625 87.03125 L 23.402344 87.03125 C 23.523438 86.695312 23.570312 86.636719 23.839844 86.695312 L 25.5625 87.074219 C 25.902344 87.199219 26.285156 87.148438 26.582031 86.9375 C 26.882812 86.730469 27.058594 86.386719 27.058594 86.023438 C 27.179688 85.699219 27.140625 85.339844 26.960938 85.046875 C 26.78125 84.753906 26.472656 84.5625 26.132812 84.523438 L 24.398438 84.144531 C 24.128906 84.144531 24.105469 84.019531 24.140625 83.664062 L 23.996094 83.664062 L 23.757812 84.78125 L 23.90625 84.78125 C 24.027344 84.390625 24.085938 84.332031 24.351562 84.390625 L 25.996094 84.746094 C 26.277344 84.75 26.542969 84.882812 26.710938 85.109375 C 26.878906 85.335938 26.929688 85.628906 26.847656 85.898438 C 26.722656 86.425781 26.308594 86.625 25.726562 86.503906 Z M 25.359375 78.863281 C 25.480469 78.441406 25.921875 78.195312 26.34375 78.316406 C 26.765625 78.4375 27.011719 78.875 26.890625 79.300781 L 26.800781 79.578125 L 25.28125 79.132812 Z M 26.980469 79.636719 L 27.070312 79.34375 L 28.269531 78.917969 C 28.46875 78.871094 28.660156 78.78125 28.828125 78.664062 L 29.0625 77.867188 L 28.929688 77.867188 C 28.839844 78.113281 28.703125 78.226562 28.347656 78.359375 L 27.136719 78.820312 C 27.234375 78.339844 26.960938 77.863281 26.5 77.699219 C 25.964844 77.542969 25.460938 77.855469 25.226562 78.652344 L 24.824219 80.015625 L 24.96875 80.015625 C 25.101562 79.691406 25.148438 79.636719 25.414062 79.714844 L 27.777344 80.417969 C 28.03125 80.496094 28.042969 80.5625 27.988281 80.910156 L 28.132812 80.910156 L 28.523438 79.558594 L 28.390625 79.558594 C 28.246094 79.882812 28.199219 79.925781 27.933594 79.847656 Z M 28.882812 72.441406 L 28.257812 71.03125 C 28.171875 70.875 28.171875 70.6875 28.257812 70.53125 L 28.109375 70.53125 L 27.71875 71.503906 L 27.855469 71.558594 C 27.988281 71.289062 28.03125 71.234375 28.109375 71.257812 C 28.171875 71.300781 28.21875 71.363281 28.246094 71.4375 L 28.972656 73.058594 L 30.484375 72.65625 C 30.683594 72.601562 30.878906 72.53125 31.0625 72.441406 L 31.320312 71.59375 L 31.1875 71.59375 C 31.074219 71.839844 30.984375 71.894531 30.617188 71.996094 Z M 27.765625 72.589844 C 27.507812 72.488281 27.507812 72.421875 27.597656 72.074219 L 27.460938 72.015625 L 26.925781 73.316406 L 27.070312 73.316406 C 27.238281 73 27.292969 72.96875 27.539062 73.070312 L 29.777344 73.996094 C 30.035156 74.097656 30.035156 74.164062 29.945312 74.511719 L 30.078125 74.511719 L 30.605469 73.214844 L 30.472656 73.214844 C 30.304688 73.515625 30.246094 73.5625 29.992188 73.460938 Z M 30.492188 66.300781 C 30.246094 66.179688 30.246094 66.109375 30.371094 65.777344 L 30.203125 65.707031 L 29.578125 66.960938 L 29.710938 67.027344 C 29.914062 66.738281 29.957031 66.691406 30.203125 66.816406 L 32.441406 67.933594 C 32.6875 68.058594 32.6875 68.125 32.574219 68.460938 L 32.707031 68.527344 L 33.324219 67.261719 L 33.199219 67.195312 C 33 67.5 32.945312 67.53125 32.699219 67.410156 Z M 29.699219 66.222656 C 29.777344 66.050781 29.703125 65.847656 29.53125 65.765625 C 29.359375 65.683594 29.152344 65.757812 29.070312 65.929688 C 28.988281 66.101562 29.058594 66.304688 29.230469 66.390625 C 29.3125 66.433594 29.410156 66.4375 29.5 66.40625 C 29.589844 66.375 29.660156 66.308594 29.699219 66.222656 M 34.621094 61.882812 L 33.648438 60.113281 C 33.597656 60.003906 33.597656 59.878906 33.648438 59.769531 L 33.558594 59.691406 L 33.042969 60.527344 L 33.167969 60.605469 C 33.347656 60.339844 33.425781 60.273438 33.535156 60.339844 C 33.605469 60.40625 33.664062 60.480469 33.714844 60.5625 L 34.398438 61.804688 L 32.953125 61.804688 C 32.871094 61.828125 32.78125 61.828125 32.699219 61.804688 C 32.585938 61.738281 32.597656 61.625 32.765625 61.355469 L 32.640625 61.277344 L 31.914062 62.398438 L 32.039062 62.476562 C 32.109375 62.371094 32.226562 62.3125 32.351562 62.320312 L 34.363281 62.417969 L 35.113281 62.878906 C 35.347656 63.023438 35.292969 63.148438 35.113281 63.449219 L 35.238281 63.527344 L 36.019531 62.273438 L 35.898438 62.195312 C 35.683594 62.464844 35.605469 62.566406 35.371094 62.410156 Z M 38.257812 58.605469 L 39.835938 56.445312 L 39.175781 55.773438 L 39.085938 55.886719 C 39.34375 56.46875 39.410156 56.714844 39.195312 57.003906 L 38.972656 57.320312 C 38.78125 57.574219 38.636719 57.652344 38.425781 57.496094 L 37.472656 56.804688 L 37.886719 56.222656 C 38.023438 56.054688 38.179688 56.066406 38.457031 56.222656 L 38.546875 56.097656 L 37.675781 55.460938 L 37.585938 55.585938 C 37.796875 55.808594 37.867188 55.953125 37.742188 56.132812 L 37.328125 56.703125 L 36.210938 55.875 L 36.679688 55.238281 C 36.890625 54.9375 37.105469 54.902344 37.664062 55.027344 L 37.730469 54.9375 L 37.039062 54.453125 L 35.484375 56.570312 L 35.605469 56.660156 C 35.851562 56.402344 35.90625 56.367188 36.132812 56.535156 L 38.035156 57.980469 C 38.257812 58.144531 38.246094 58.203125 38.035156 58.515625 Z M 43.144531 46.871094 C 42.8125 47.210938 42.636719 47.675781 42.667969 48.152344 C 42.695312 48.628906 42.925781 49.070312 43.300781 49.363281 C 43.605469 49.710938 44.039062 49.910156 44.5 49.910156 C 44.957031 49.910156 45.394531 49.710938 45.695312 49.363281 C 45.972656 49.101562 46.171875 48.761719 46.265625 48.390625 L 45.671875 47.722656 L 45.550781 47.832031 C 45.941406 48.449219 45.929688 48.863281 45.550781 49.21875 C 45.171875 49.578125 44.265625 49.5 43.605469 48.863281 C 42.945312 48.222656 42.742188 47.542969 43.246094 47.027344 C 43.597656 46.691406 44.148438 46.691406 44.5 47.027344 L 44.609375 46.914062 L 44.0625 46.390625 C 43.699219 46.484375 43.367188 46.683594 43.113281 46.960938 M 47.585938 43.28125 C 47.40625 43.078125 47.429688 43.011719 47.664062 42.742188 L 47.574219 42.632812 L 46.457031 43.570312 L 46.558594 43.683594 C 46.847656 43.480469 46.914062 43.457031 47.105469 43.683594 L 48.28125 45.003906 C 48.785156 45.570312 49.652344 45.625 50.222656 45.121094 C 50.789062 44.617188 50.84375 43.746094 50.339844 43.179688 L 49.152344 41.847656 C 48.972656 41.636719 48.996094 41.566406 49.230469 41.300781 L 49.140625 41.199219 L 48.300781 41.9375 L 48.402344 42.050781 C 48.726562 41.804688 48.804688 41.792969 48.996094 41.992188 L 50.113281 43.257812 C 50.335938 43.425781 50.464844 43.6875 50.464844 43.96875 C 50.464844 44.246094 50.335938 44.507812 50.113281 44.679688 C 49.925781 44.84375 49.675781 44.914062 49.429688 44.875 C 49.183594 44.835938 48.96875 44.691406 48.839844 44.476562 Z M 56.222656 39.296875 L 56.300781 39.386719 C 56.445312 39.589844 56.378906 39.6875 56.121094 39.914062 L 56.199219 40.035156 L 57.320312 39.1875 L 57.230469 39.0625 C 57.003906 39.195312 56.894531 39.230469 56.738281 39.0625 L 55.015625 37.226562 C 54.867188 37.015625 54.902344 36.890625 55.136719 36.691406 L 55.058594 36.566406 L 54.289062 37.136719 C 54.335938 37.222656 54.375 37.3125 54.398438 37.40625 L 55.09375 39.746094 L 53.023438 38.414062 C 52.941406 38.359375 52.867188 38.296875 52.800781 38.222656 L 52.015625 38.78125 L 52.105469 38.90625 C 52.363281 38.738281 52.496094 38.738281 52.652344 38.90625 L 53.882812 41.144531 C 53.996094 41.34375 53.882812 41.445312 53.738281 41.625 L 53.816406 41.746094 L 54.691406 41.109375 L 54.613281 40.988281 C 54.308594 41.164062 54.1875 41.199219 54.050781 40.988281 L 53.984375 40.875 L 53.023438 38.929688 L 55.460938 40.503906 L 55.605469 40.40625 L 54.8125 37.628906 Z M 59.578125 34.117188 C 59.445312 33.871094 59.476562 33.816406 59.769531 33.605469 L 59.703125 33.480469 L 58.472656 34.164062 L 58.539062 34.296875 C 58.875 34.164062 58.941406 34.152344 59.074219 34.398438 L 60.40625 36.457031 C 60.539062 36.691406 60.507812 36.746094 60.214844 36.960938 L 60.28125 37.082031 L 61.511719 36.398438 L 61.445312 36.277344 C 61.109375 36.410156 61.042969 36.410156 60.910156 36.164062 L 60.339844 35.136719 L 61.75 34.351562 L 62.320312 35.382812 C 62.453125 35.617188 62.417969 35.671875 62.128906 35.886719 L 62.207031 36.019531 L 63.425781 35.328125 L 63.359375 35.203125 C 63.023438 35.335938 62.957031 35.335938 62.824219 35.101562 L 61.523438 32.953125 C 61.390625 32.707031 61.425781 32.652344 61.714844 32.453125 L 61.648438 32.316406 L 60.417969 33 L 60.484375 33.132812 C 60.820312 33 60.886719 33 61.019531 33.234375 L 61.546875 34.175781 L 60.136719 34.96875 Z M 66 30.570312 C 65.886719 30.316406 65.921875 30.269531 66.234375 30.078125 L 66.167969 29.945312 L 64.878906 30.539062 L 64.9375 30.671875 C 65.285156 30.5625 65.351562 30.5625 65.460938 30.808594 L 66.257812 32.441406 C 66.367188 32.785156 66.640625 33.058594 66.988281 33.167969 C 67.335938 33.277344 67.710938 33.210938 68 32.988281 C 68.335938 32.886719 68.605469 32.636719 68.726562 32.308594 C 68.851562 31.984375 68.8125 31.617188 68.628906 31.320312 L 67.878906 29.710938 C 67.753906 29.464844 67.800781 29.410156 68.101562 29.21875 L 68.046875 29.085938 L 67.027344 29.554688 L 67.09375 29.6875 C 67.476562 29.554688 67.554688 29.554688 67.675781 29.8125 L 68.394531 31.320312 C 68.546875 31.554688 68.585938 31.84375 68.496094 32.105469 C 68.40625 32.367188 68.199219 32.574219 67.933594 32.664062 C 67.441406 32.898438 67.027344 32.664062 66.816406 32.128906 Z M 72.710938 27.316406 C 72.90625 27.222656 73.132812 27.21875 73.332031 27.308594 C 73.53125 27.394531 73.679688 27.566406 73.738281 27.777344 C 73.84375 27.976562 73.847656 28.214844 73.75 28.417969 C 73.652344 28.621094 73.46875 28.769531 73.246094 28.816406 L 72.980469 28.917969 L 72.441406 27.40625 Z M 73.089844 29.085938 L 73.382812 28.984375 L 74.421875 29.710938 C 74.582031 29.84375 74.761719 29.945312 74.960938 30.011719 L 75.742188 29.734375 L 75.742188 29.597656 C 75.484375 29.675781 75.316406 29.597656 74.992188 29.421875 L 73.875 28.714844 C 74.277344 28.5 74.480469 28.039062 74.367188 27.597656 C 74.175781 27.058594 73.640625 26.847656 72.855469 27.117188 L 71.503906 27.597656 L 71.503906 27.730469 C 71.851562 27.652344 71.917969 27.664062 72.007812 27.921875 L 72.878906 30.203125 C 72.96875 30.460938 72.878906 30.503906 72.609375 30.660156 L 72.609375 30.808594 L 73.929688 30.335938 L 73.929688 30.191406 C 73.582031 30.269531 73.515625 30.269531 73.425781 30 Z M 79.164062 25.570312 C 79.097656 25.304688 79.164062 25.257812 79.480469 25.125 L 79.480469 24.980469 L 78.125 25.347656 L 78.125 25.492188 C 78.472656 25.492188 78.539062 25.492188 78.605469 25.71875 L 79.253906 28.101562 C 79.320312 28.355469 79.253906 28.402344 78.941406 28.535156 L 78.941406 28.683594 L 80.296875 28.3125 L 80.296875 28.179688 C 79.9375 28.179688 79.871094 28.179688 79.804688 27.945312 Z M 78.695312 24.921875 C 78.878906 24.867188 78.984375 24.683594 78.941406 24.496094 C 78.914062 24.410156 78.855469 24.332031 78.773438 24.289062 C 78.691406 24.246094 78.59375 24.234375 78.503906 24.261719 C 78.417969 24.285156 78.339844 24.339844 78.296875 24.417969 C 78.25 24.496094 78.234375 24.589844 78.257812 24.675781 C 78.28125 24.769531 78.34375 24.847656 78.425781 24.894531 C 78.507812 24.941406 78.605469 24.949219 78.695312 24.921875 M 85.183594 25.773438 L 85.820312 23.859375 C 85.859375 23.742188 85.957031 23.652344 86.078125 23.625 L 86.078125 23.480469 L 85.117188 23.671875 L 85.117188 23.804688 C 85.429688 23.804688 85.53125 23.804688 85.554688 23.90625 C 85.570312 23.992188 85.570312 24.085938 85.554688 24.171875 L 85.105469 25.539062 L 84.164062 24.417969 C 84.097656 24.359375 84.046875 24.285156 84.019531 24.195312 C 84.019531 24.074219 84.085938 24.015625 84.402344 23.9375 L 84.402344 23.792969 L 83.070312 24.050781 L 83.070312 24.195312 C 83.191406 24.179688 83.3125 24.226562 83.394531 24.320312 L 84.691406 25.863281 L 84.859375 26.734375 C 84.914062 27.003906 84.78125 27.039062 84.46875 27.148438 L 84.46875 27.292969 L 85.921875 27.015625 L 85.921875 26.871094 C 85.585938 26.871094 85.453125 26.871094 85.394531 26.625 Z M 90.070312 26.265625 L 92.734375 26.03125 L 92.800781 25.089844 L 92.667969 25.089844 C 92.398438 25.660156 92.265625 25.875 91.882812 25.90625 L 91.503906 25.90625 C 91.179688 25.90625 91.035156 25.90625 91.011719 25.617188 L 90.910156 24.441406 L 91.617188 24.441406 C 91.828125 24.441406 91.917969 24.554688 91.996094 24.855469 L 92.152344 24.855469 L 92.050781 23.792969 L 91.90625 23.792969 C 91.90625 24.09375 91.816406 24.25 91.605469 24.261719 L 90.890625 24.332031 L 90.765625 22.933594 L 91.558594 22.863281 C 91.917969 22.863281 92.085938 22.953125 92.367188 23.46875 L 92.476562 23.46875 L 92.386719 22.617188 L 89.769531 22.855469 L 89.769531 23 C 90.128906 23 90.183594 23 90.207031 23.3125 L 90.429688 25.761719 C 90.429688 26.042969 90.429688 26.074219 90.050781 26.140625 Z M 96.203125 22.273438 L 96.144531 23.390625 L 96.28125 23.390625 C 96.558594 22.675781 96.660156 22.460938 97.074219 22.460938 L 97.386719 22.460938 L 97.386719 25.269531 C 97.386719 25.539062 97.265625 25.5625 96.929688 25.605469 L 96.929688 25.726562 L 98.441406 25.726562 L 98.441406 25.582031 C 98.105469 25.582031 97.980469 25.582031 97.980469 25.257812 L 97.980469 22.449219 L 98.292969 22.449219 C 98.695312 22.449219 98.808594 22.652344 99.109375 23.355469 L 99.246094 23.355469 L 99.15625 22.238281 Z M 103.855469 22.820312 C 103.855469 22.550781 103.933594 22.519531 104.289062 22.496094 L 104.289062 22.371094 L 102.914062 22.261719 L 102.914062 22.371094 C 103.261719 22.441406 103.316406 22.472656 103.304688 22.753906 L 103.148438 25.203125 C 103.148438 25.480469 103.070312 25.503906 102.710938 25.527344 L 102.710938 25.726562 L 104.121094 25.816406 L 104.121094 25.671875 C 103.773438 25.605469 103.71875 25.570312 103.742188 25.292969 Z M 103.609375 22.058594 C 103.800781 22.058594 103.953125 21.902344 103.953125 21.710938 C 103.953125 21.519531 103.800781 21.367188 103.609375 21.367188 C 103.417969 21.367188 103.261719 21.519531 103.261719 21.710938 C 103.261719 21.902344 103.417969 22.058594 103.609375 22.058594 M 113.789062 23.414062 C 113.332031 23.347656 112.867188 23.46875 112.503906 23.75 C 112.140625 24.035156 111.910156 24.453125 111.863281 24.910156 C 111.746094 25.359375 111.828125 25.832031 112.089844 26.214844 C 112.347656 26.597656 112.757812 26.847656 113.214844 26.902344 C 113.589844 26.980469 113.976562 26.953125 114.335938 26.824219 L 114.570312 25.964844 L 114.402344 25.964844 C 114.113281 26.625 113.753906 26.847656 113.285156 26.757812 C 112.589844 26.625 112.34375 25.828125 112.511719 24.921875 C 112.679688 24.015625 113.136719 23.492188 113.84375 23.625 C 114.320312 23.707031 114.648438 24.152344 114.582031 24.632812 L 114.738281 24.632812 L 114.871094 23.894531 C 114.59375 23.640625 114.25 23.472656 113.875 23.414062 M 119.46875 25.15625 C 119.546875 24.890625 119.613281 24.878906 119.972656 24.933594 L 119.972656 24.800781 L 118.621094 24.398438 L 118.621094 24.53125 C 118.945312 24.675781 119 24.722656 118.921875 24.988281 L 118.417969 26.679688 C 118.277344 27.34375 118.667969 28.007812 119.316406 28.203125 C 119.964844 28.402344 120.660156 28.070312 120.914062 27.441406 L 121.417969 25.738281 C 121.496094 25.472656 121.5625 25.460938 121.917969 25.515625 L 121.917969 25.382812 L 120.800781 25.058594 L 120.800781 25.203125 C 121.179688 25.347656 121.238281 25.414062 121.160156 25.671875 L 120.679688 27.292969 C 120.640625 27.570312 120.476562 27.8125 120.234375 27.949219 C 119.992188 28.085938 119.703125 28.097656 119.449219 27.988281 C 118.933594 27.84375 118.753906 27.40625 118.933594 26.8125 Z M 127.445312 30.28125 C 127.445312 30.320312 127.445312 30.355469 127.445312 30.394531 C 127.355469 30.617188 127.234375 30.617188 126.898438 30.515625 L 126.898438 30.652344 L 128.238281 31.199219 L 128.238281 31.0625 C 128.003906 30.941406 127.925781 30.863281 127.984375 30.640625 L 128.652344 28.210938 C 128.753906 27.964844 128.878906 27.933594 129.167969 28.03125 L 129.167969 27.898438 L 128.285156 27.539062 C 128.242188 27.628906 128.183594 27.707031 128.117188 27.777344 L 126.496094 29.597656 L 126.496094 27.136719 C 126.484375 27.039062 126.484375 26.9375 126.496094 26.835938 L 125.601562 26.476562 L 125.601562 26.613281 C 125.878906 26.746094 125.945312 26.859375 125.855469 27.105469 L 124.625 29.339844 C 124.515625 29.554688 124.402344 29.554688 124.144531 29.476562 L 124.089844 29.609375 L 125.085938 30.011719 L 125.140625 29.878906 C 124.839844 29.722656 124.75 29.632812 124.839844 29.421875 C 124.855469 29.382812 124.875 29.34375 124.894531 29.308594 L 125.933594 27.417969 L 125.867188 30.335938 L 126.035156 30.40625 L 127.960938 28.257812 Z M 133.621094 30.347656 C 133.742188 30.113281 133.8125 30.113281 134.144531 30.238281 L 134.214844 30.101562 L 132.972656 29.453125 L 132.90625 29.578125 C 133.195312 29.789062 133.230469 29.832031 133.105469 30.078125 L 131.988281 32.261719 C 131.863281 32.496094 131.796875 32.496094 131.460938 32.375 L 131.394531 32.507812 L 132.636719 33.15625 L 132.703125 33.03125 C 132.414062 32.820312 132.378906 32.777344 132.5 32.53125 L 133.050781 31.476562 L 134.480469 32.238281 L 133.933594 33.277344 C 133.800781 33.523438 133.730469 33.523438 133.398438 33.390625 L 133.328125 33.523438 L 134.570312 34.183594 L 134.636719 34.050781 C 134.347656 33.851562 134.3125 33.792969 134.4375 33.546875 L 135.554688 31.378906 C 135.679688 31.132812 135.746094 31.132812 136.082031 31.265625 L 136.148438 31.132812 L 134.90625 30.472656 L 134.839844 30.605469 C 135.128906 30.808594 135.175781 30.863281 135.042969 31.109375 L 134.539062 32.058594 L 133.117188 31.320312 Z M 140.050781 33.851562 C 140.210938 33.613281 140.265625 33.625 140.589844 33.78125 L 140.679688 33.660156 L 139.492188 32.886719 L 139.414062 33.011719 C 139.683594 33.246094 139.726562 33.300781 139.570312 33.535156 L 138.597656 35.003906 C 138.359375 35.277344 138.269531 35.652344 138.359375 36.007812 C 138.449219 36.363281 138.703125 36.652344 139.046875 36.78125 C 139.304688 37.003906 139.648438 37.097656 139.984375 37.035156 C 140.320312 36.972656 140.609375 36.757812 140.769531 36.457031 L 141.742188 34.96875 C 141.898438 34.734375 141.964844 34.746094 142.289062 34.902344 L 142.367188 34.777344 L 141.441406 34.164062 L 141.363281 34.285156 C 141.675781 34.542969 141.707031 34.621094 141.5625 34.84375 L 140.632812 36.253906 C 140.519531 36.507812 140.289062 36.691406 140.019531 36.753906 C 139.746094 36.816406 139.460938 36.746094 139.246094 36.566406 C 138.800781 36.277344 138.765625 35.808594 139.101562 35.292969 Z M 146.328125 37.753906 C 146.679688 38.019531 146.75 38.519531 146.484375 38.871094 C 146.21875 39.222656 145.71875 39.292969 145.367188 39.027344 L 145.140625 38.851562 L 146.117188 37.585938 Z M 145.03125 38.996094 L 145.265625 39.175781 L 145.265625 40.460938 C 145.226562 40.660156 145.226562 40.867188 145.265625 41.066406 L 145.925781 41.566406 L 146.015625 41.457031 C 145.800781 41.289062 145.746094 41.121094 145.757812 40.742188 L 145.757812 39.453125 C 146.171875 39.675781 146.679688 39.582031 146.988281 39.230469 C 147.324219 38.78125 147.210938 38.210938 146.550781 37.710938 L 145.433594 36.835938 L 145.34375 36.960938 C 145.601562 37.207031 145.625 37.261719 145.457031 37.484375 L 143.96875 39.433594 C 143.800781 39.65625 143.734375 39.644531 143.417969 39.433594 L 143.332031 39.542969 L 144.449219 40.394531 L 144.539062 40.28125 C 144.28125 40.035156 144.257812 39.96875 144.425781 39.757812 Z M 150.769531 43.46875 C 150.949219 43.589844 151.066406 43.789062 151.085938 44.007812 C 151.101562 44.226562 151.019531 44.441406 150.859375 44.589844 C 150.734375 44.753906 150.539062 44.851562 150.332031 44.851562 C 150.125 44.851562 149.933594 44.753906 149.808594 44.589844 C 149.570312 44.375 149.527344 44.242188 149.707031 44.039062 L 150.511719 43.179688 Z M 151.777344 42.238281 C 151.96875 42.410156 152.054688 42.671875 152 42.921875 C 151.945312 43.171875 151.757812 43.375 151.507812 43.445312 C 151.261719 43.519531 150.996094 43.449219 150.8125 43.269531 L 150.589844 43.054688 L 151.550781 42.027344 Z M 149.71875 44.746094 C 150.308594 45.292969 150.835938 45.339844 151.261719 44.914062 C 151.6875 44.488281 151.496094 43.996094 151.046875 43.539062 C 151.390625 43.855469 151.925781 43.855469 152.269531 43.539062 C 152.660156 43.125 152.546875 42.632812 152 42.117188 L 150.882812 41.109375 L 150.792969 41.222656 C 151.015625 41.488281 151.039062 41.558594 150.792969 41.757812 L 149.203125 43.625 C 149.023438 43.828125 148.957031 43.804688 148.667969 43.625 L 148.566406 43.726562 Z M 155.121094 49.308594 C 155.09375 49.371094 155.054688 49.425781 155.007812 49.476562 C 154.898438 49.578125 154.773438 49.476562 154.5625 49.296875 L 154.449219 49.398438 L 155.355469 50.417969 L 155.488281 50.339844 C 155.429688 50.230469 155.429688 50.097656 155.488281 49.992188 L 156.921875 46.984375 L 156.507812 46.523438 L 156.351562 46.859375 L 153.507812 47.898438 C 153.375 47.898438 153.296875 47.898438 153.183594 47.800781 L 153.074219 47.898438 L 153.734375 48.636719 L 153.835938 48.539062 C 153.632812 48.292969 153.597656 48.167969 153.710938 48.066406 C 153.765625 48.027344 153.828125 48 153.890625 47.976562 L 154.503906 47.742188 L 155.421875 48.773438 Z M 156.238281 47.070312 L 155.488281 48.570312 L 154.683594 47.652344 Z M 157.121094 54.199219 C 157.425781 54.589844 157.773438 54.789062 158.050781 54.578125 C 158.332031 54.367188 158.21875 54.199219 158.050781 53.960938 L 158.230469 53.960938 C 158.5625 54.46875 159.238281 54.617188 159.75 54.296875 C 160.210938 53.941406 160.1875 53.492188 159.988281 52.800781 C 159.785156 52.105469 159.828125 52.015625 160.121094 51.792969 C 160.242188 51.695312 160.398438 51.652344 160.554688 51.679688 C 160.707031 51.707031 160.84375 51.796875 160.925781 51.925781 C 161.207031 52.296875 161.136719 52.828125 160.769531 53.113281 L 160.871094 53.234375 L 161.453125 52.789062 C 161.421875 52.433594 161.285156 52.097656 161.058594 51.824219 C 160.921875 51.589844 160.6875 51.421875 160.417969 51.371094 C 160.148438 51.316406 159.871094 51.382812 159.652344 51.546875 C 159.191406 51.894531 159.238281 52.339844 159.394531 52.890625 C 159.550781 53.4375 159.582031 53.796875 159.269531 54.007812 C 159.128906 54.113281 158.953125 54.152344 158.78125 54.117188 C 158.609375 54.082031 158.460938 53.972656 158.375 53.816406 C 158.074219 53.425781 158.175781 52.957031 158.589844 52.484375 L 158.488281 52.351562 L 157.839844 52.890625 C 157.84375 53.222656 157.953125 53.546875 158.152344 53.816406 L 157.683594 53.941406 C 157.839844 54.175781 157.882812 54.320312 157.773438 54.398438 C 157.660156 54.476562 157.449219 54.398438 157.222656 54.109375 Z M 163.566406 57.832031 L 165.078125 58.144531 C 165.253906 58.15625 165.417969 58.253906 165.511719 58.402344 L 165.648438 58.324219 L 165.078125 57.417969 L 164.953125 57.496094 C 165.097656 57.777344 165.121094 57.84375 165.042969 57.890625 C 164.972656 57.914062 164.898438 57.914062 164.832031 57.890625 L 163.085938 57.519531 L 162.527344 58.984375 C 162.449219 59.175781 162.394531 59.375 162.371094 59.578125 L 162.792969 60.273438 L 162.917969 60.195312 C 162.792969 59.957031 162.792969 59.859375 162.917969 59.5 Z M 164.113281 56.816406 C 164.347656 56.667969 164.40625 56.703125 164.628906 56.984375 L 164.75 56.90625 L 164.011719 55.707031 L 163.890625 55.785156 C 164.035156 56.109375 164.046875 56.175781 163.8125 56.324219 L 161.71875 57.632812 C 161.484375 57.777344 161.429688 57.742188 161.207031 57.464844 L 161.082031 57.542969 L 161.832031 58.726562 L 161.957031 58.648438 C 161.796875 58.324219 161.796875 58.269531 162.035156 58.125 Z M 166.207031 65.046875 C 166.164062 65.097656 166.109375 65.140625 166.050781 65.171875 C 165.914062 65.25 165.816406 65.171875 165.65625 64.902344 L 165.523438 64.96875 L 166.171875 66.179688 L 166.296875 66.109375 C 166.296875 65.976562 166.230469 65.875 166.296875 65.777344 L 168.53125 63.15625 L 168.242188 62.609375 L 168.007812 62.902344 L 165.007812 63.234375 C 164.863281 63.234375 164.796875 63.167969 164.707031 63.070312 L 164.585938 63.136719 L 165.042969 64.007812 L 165.175781 63.941406 C 165.03125 63.648438 165.03125 63.515625 165.175781 63.449219 C 165.238281 63.433594 165.304688 63.433594 165.367188 63.449219 L 166.027344 63.371094 L 166.675781 64.546875 Z M 167.792969 63.125 L 166.675781 64.398438 L 166.105469 63.28125 Z M 169.628906 71.46875 L 171.195312 68.75 L 170.859375 67.945312 L 170.726562 67.945312 C 170.726562 68.136719 170.726562 68.226562 170.601562 68.449219 L 168.285156 69.398438 C 168.03125 69.5 167.984375 69.46875 167.804688 69.140625 L 167.671875 69.140625 L 168.097656 70.183594 L 168.230469 70.128906 C 168.109375 69.734375 168.117188 69.644531 168.375 69.546875 L 170.480469 68.683594 L 168.722656 71.769531 L 168.789062 71.929688 L 171.53125 70.808594 C 171.789062 70.707031 171.84375 70.808594 172.023438 71.066406 L 172.15625 71.011719 L 171.730469 69.96875 L 171.597656 70.027344 C 171.710938 70.417969 171.710938 70.507812 171.453125 70.609375 Z M 173.386719 75.753906 C 173.644531 75.675781 173.691406 75.753906 173.835938 76.042969 L 173.980469 76.042969 L 173.578125 74.691406 L 173.433594 74.691406 C 173.5 75.039062 173.488281 75.105469 173.21875 75.183594 L 170.859375 75.886719 C 170.601562 75.964844 170.558594 75.886719 170.414062 75.585938 L 170.265625 75.585938 L 170.992188 78.035156 L 172.011719 77.902344 L 172.011719 77.765625 C 171.386719 77.632812 171.082031 77.554688 170.972656 77.175781 L 170.894531 76.929688 C 170.804688 76.613281 170.824219 76.46875 171.082031 76.390625 Z M 175.097656 81.839844 C 175.367188 81.839844 175.414062 81.839844 175.535156 82.175781 L 175.667969 82.175781 L 175.378906 80.796875 L 175.234375 80.796875 C 175.234375 81.15625 175.234375 81.222656 174.976562 81.28125 L 172.570312 81.804688 C 172.300781 81.863281 172.269531 81.804688 172.144531 81.46875 L 172 81.46875 L 172.300781 82.847656 L 172.449219 82.847656 C 172.449219 82.488281 172.449219 82.421875 172.695312 82.363281 Z M 176.945312 87.433594 C 176.945312 87.847656 177.292969 88.082031 177.804688 88.015625 L 177.804688 87.867188 C 177.472656 87.867188 177.347656 87.65625 177.304688 87.375 C 177.269531 87.25 177.285156 87.117188 177.351562 87.003906 C 177.417969 86.890625 177.523438 86.804688 177.648438 86.773438 L 177.648438 86.625 C 177.449219 86.625 177.257812 86.714844 177.128906 86.871094 C 177 87.027344 176.949219 87.234375 176.988281 87.433594 M 173.734375 88.484375 C 173.589844 88.328125 173.503906 88.125 173.488281 87.914062 C 173.375 87.164062 174.105469 86.714844 174.964844 86.59375 C 175.828125 86.46875 176.542969 86.714844 176.644531 87.464844 C 176.722656 87.96875 176.464844 88.304688 175.914062 88.496094 L 175.914062 88.652344 L 176.664062 88.550781 C 176.816406 88.199219 176.863281 87.808594 176.800781 87.433594 C 176.738281 86.957031 176.480469 86.527344 176.085938 86.253906 C 175.691406 85.980469 175.195312 85.886719 174.730469 86 C 174.277344 86.03125 173.859375 86.253906 173.582031 86.613281 C 173.300781 86.972656 173.191406 87.433594 173.277344 87.878906 C 173.332031 88.296875 173.511719 88.683594 173.789062 89 L 174.597656 88.886719 C 174.863281 88.886719 174.898438 88.886719 175 89.246094 L 175.144531 89.246094 L 174.953125 87.878906 L 174.808594 87.878906 C 174.808594 88.238281 174.808594 88.292969 174.519531 88.339844 Z M 176.988281 93.449219 C 177.269531 93.449219 177.304688 93.449219 177.382812 93.832031 L 177.527344 93.832031 L 177.402344 92.433594 L 177.257812 92.433594 C 177.257812 92.789062 177.257812 92.859375 176.945312 92.878906 L 174.496094 93.09375 C 174.214844 93.09375 174.183594 93.09375 174.113281 92.710938 L 173.957031 92.710938 L 174.09375 94.109375 L 174.238281 94.109375 C 174.238281 93.753906 174.238281 93.695312 174.539062 93.675781 Z M 176.988281 93.449219 "/>
<path style=" stroke:none;fill-rule:nonzero;fill:rgb(52.941176%,52.941176%,52.941176%);fill-opacity:1;" d="M 12.351562 90.429688 L 14.945312 91.785156 L 14.496094 94.648438 L 16.589844 92.632812 L 19.207031 93.953125 L 17.910156 91.347656 L 19.980469 89.300781 L 17.082031 89.714844 L 15.738281 87.128906 L 15.246094 89.984375 Z M 12.351562 90.429688 "/>
<path style=" stroke:none;fill-rule:nonzero;fill:rgb(52.941176%,52.941176%,52.941176%);fill-opacity:1;" d="M 15.894531 73.796875 L 18.222656 75.585938 L 17.273438 78.328125 L 19.699219 76.703125 L 22.035156 78.460938 L 21.210938 75.664062 L 23.613281 74.019531 L 20.683594 73.90625 L 19.8125 71.132812 L 18.828125 73.851562 Z M 15.894531 73.796875 "/>
<path style=" stroke:none;fill-rule:nonzero;fill:rgb(52.941176%,52.941176%,52.941176%);fill-opacity:1;" d="M 22.628906 57.800781 L 24.496094 60.058594 L 22.976562 62.519531 L 25.695312 61.46875 L 27.597656 63.695312 L 27.40625 60.785156 L 30.101562 59.703125 L 27.261719 58.964844 L 27.027344 56.054688 L 25.472656 58.503906 Z M 22.628906 57.800781 "/>
<path style=" stroke:none;fill-rule:nonzero;fill:rgb(52.941176%,52.941176%,52.941176%);fill-opacity:1;" d="M 32.316406 43.660156 L 33.726562 46.234375 L 31.757812 48.359375 L 34.621094 47.84375 L 36.074219 50.394531 L 36.433594 47.507812 L 39.285156 46.949219 L 36.644531 45.683594 L 36.972656 42.789062 L 34.980469 44.890625 Z M 32.316406 43.660156 "/>
<path style=" stroke:none;fill-rule:nonzero;fill:rgb(52.941176%,52.941176%,52.941176%);fill-opacity:1;" d="M 44.542969 31.65625 L 45.4375 34.453125 L 43.113281 36.175781 L 46.019531 36.210938 L 46.960938 38.984375 L 47.855469 36.222656 L 50.773438 36.210938 L 48.414062 34.464844 L 49.277344 31.679688 L 46.925781 33.367188 Z M 44.542969 31.65625 "/>
<path style=" stroke:none;fill-rule:nonzero;fill:rgb(52.941176%,52.941176%,52.941176%);fill-opacity:1;" d="M 58.875 22.226562 L 59.21875 25.148438 L 56.589844 26.386719 L 59.445312 26.980469 L 59.835938 29.878906 L 61.246094 27.339844 L 64.109375 27.898438 L 62.128906 25.726562 L 63.515625 23.167969 L 60.875 24.375 Z M 58.875 22.226562 "/>
<path style=" stroke:none;fill-rule:nonzero;fill:rgb(52.941176%,52.941176%,52.941176%);fill-opacity:1;" d="M 74.769531 15.738281 L 74.546875 18.660156 L 71.738281 19.375 L 74.410156 20.515625 L 74.222656 23.433594 L 76.101562 21.21875 L 78.796875 22.316406 L 77.285156 19.8125 L 79.144531 17.5625 L 76.324219 18.234375 Z M 74.769531 15.738281 "/>
<path style=" stroke:none;fill-rule:nonzero;fill:rgb(52.941176%,52.941176%,52.941176%);fill-opacity:1;" d="M 91.660156 12.449219 L 90.855469 15.269531 L 87.957031 15.402344 L 90.363281 17.046875 L 89.589844 19.878906 L 91.882812 18.089844 L 94.300781 19.699219 L 93.316406 16.9375 L 95.585938 15.113281 L 92.691406 15.203125 Z M 91.660156 12.449219 "/>
<path style=" stroke:none;fill-rule:nonzero;fill:rgb(52.941176%,52.941176%,52.941176%);fill-opacity:1;" d="M 108.6875 12.550781 L 107.398438 15.179688 L 104.523438 14.800781 L 106.59375 16.847656 L 105.339844 19.496094 L 107.914062 18.132812 L 110.007812 20.148438 L 109.523438 17.261719 L 112.074219 15.851562 L 109.210938 15.425781 Z M 108.6875 12.550781 "/>
<path style=" stroke:none;fill-rule:nonzero;fill:rgb(52.941176%,52.941176%,52.941176%);fill-opacity:1;" d="M 125.554688 15.875 L 123.765625 18.1875 L 121.023438 17.25 L 122.648438 19.664062 L 120.902344 22.015625 L 123.6875 21.1875 L 125.34375 23.582031 L 125.441406 20.648438 L 128.230469 19.777344 L 125.5 18.792969 Z M 125.554688 15.875 "/>
<path style=" stroke:none;fill-rule:nonzero;fill:rgb(52.941176%,52.941176%,52.941176%);fill-opacity:1;" d="M 141.417969 22.417969 L 139.214844 24.339844 L 136.707031 22.886719 L 137.828125 25.570312 L 135.65625 27.539062 L 138.554688 27.273438 L 139.71875 29.933594 L 140.378906 27.082031 L 143.273438 26.769531 L 140.789062 25.269531 Z M 141.417969 22.417969 "/>
<path style=" stroke:none;fill-rule:nonzero;fill:rgb(52.941176%,52.941176%,52.941176%);fill-opacity:1;" d="M 155.679688 31.902344 L 153.152344 33.378906 L 150.96875 31.46875 L 151.5625 34.320312 L 149.046875 35.828125 L 151.945312 36.121094 L 152.582031 38.960938 L 153.777344 36.289062 L 156.675781 36.523438 L 154.515625 34.589844 Z M 155.679688 31.902344 "/>
<path style=" stroke:none;fill-rule:nonzero;fill:rgb(52.941176%,52.941176%,52.941176%);fill-opacity:1;" d="M 167.839844 43.949219 L 165.078125 44.925781 L 163.296875 42.640625 L 163.332031 45.550781 L 160.589844 46.558594 L 163.375 47.386719 L 163.453125 50.292969 L 165.144531 47.898438 L 167.941406 48.683594 L 166.195312 46.378906 Z M 167.839844 43.949219 "/>
<path style=" stroke:none;fill-rule:nonzero;fill:rgb(52.941176%,52.941176%,52.941176%);fill-opacity:1;" d="M 177.460938 58.144531 L 174.5625 58.558594 L 173.253906 55.976562 L 172.726562 58.839844 L 169.832031 59.308594 L 172.414062 60.652344 L 171.933594 63.527344 L 174.046875 61.492188 L 176.652344 62.8125 L 175.378906 60.203125 Z M 177.460938 58.144531 "/>
<path style=" stroke:none;fill-rule:nonzero;fill:rgb(52.941176%,52.941176%,52.941176%);fill-opacity:1;" d="M 184.148438 73.953125 L 181.21875 73.796875 L 180.433594 71.011719 L 179.371094 73.71875 L 176.441406 73.605469 L 178.703125 75.429688 L 177.671875 78.148438 L 180.144531 76.570312 L 182.4375 78.371094 L 181.699219 75.5625 Z M 184.148438 73.953125 "/>
<path style=" stroke:none;fill-rule:nonzero;fill:rgb(52.941176%,52.941176%,52.941176%);fill-opacity:1;" d="M 187.617188 90.800781 L 184.785156 90.0625 L 184.574219 87.175781 L 182.984375 89.613281 L 180.144531 88.921875 L 181.988281 91.15625 L 180.433594 93.617188 L 183.175781 92.566406 L 185.066406 94.78125 L 184.898438 91.894531 Z M 187.617188 90.800781 "/>
<path style=" stroke:none;fill-rule:nonzero;fill:rgb(52.941176%,52.941176%,52.941176%);fill-opacity:1;" d="M 24.53125 104.691406 C 25.257812 104.625 25.371094 104.691406 25.5625 105.644531 L 26.074219 105.644531 L 25.660156 101.304688 L 25.148438 101.304688 C 25.148438 102.230469 25.046875 102.34375 24.320312 102.421875 L 17.753906 103.046875 C 17.027344 103.125 16.914062 103.046875 16.722656 102.121094 L 16.207031 102.121094 L 16.621094 106.472656 L 17.136719 106.472656 C 17.136719 105.53125 17.238281 105.417969 17.964844 105.351562 Z M 26.445312 103.351562 C 26.503906 103.984375 27.0625 104.449219 27.699219 104.390625 C 28.332031 104.332031 28.796875 103.769531 28.738281 103.136719 C 28.679688 102.503906 28.117188 102.039062 27.484375 102.097656 C 26.851562 102.15625 26.386719 102.71875 26.445312 103.351562 M 25.726562 114.636719 C 26.433594 114.457031 26.554688 114.546875 26.847656 115.421875 L 27.351562 115.296875 L 26.289062 111.070312 L 25.785156 111.191406 C 25.90625 112.109375 25.785156 112.230469 25.136719 112.410156 L 18.738281 114.023438 C 18.019531 114.199219 17.910156 114.113281 17.617188 113.25 L 17.125 113.375 L 18.949219 120.644531 L 22.046875 120.363281 L 21.914062 119.859375 C 19.8125 119.269531 19.117188 118.957031 18.882812 118.015625 L 18.769531 117.546875 C 18.582031 116.785156 18.679688 116.425781 19.386719 116.238281 Z M 20.707031 127.523438 L 23.839844 134.558594 L 26.589844 133.789062 L 26.378906 133.308594 C 24.453125 133.128906 23.804688 133.039062 23.335938 131.988281 L 23.066406 131.382812 C 22.742188 130.65625 22.765625 130.265625 23.433594 129.953125 L 26.230469 128.710938 L 26.847656 130.109375 C 27.105469 130.667969 26.847656 130.96875 26.097656 131.4375 L 26.308594 131.921875 L 29.183594 130.644531 L 28.972656 130.164062 C 28.109375 130.410156 27.71875 130.398438 27.460938 129.828125 L 26.847656 128.429688 L 30.203125 126.929688 L 30.886719 128.453125 C 31.34375 129.503906 31.097656 130.03125 30 131.261719 L 30.191406 131.683594 L 32.429688 130.566406 L 29.339844 123.632812 L 28.871094 123.832031 C 29.140625 124.714844 29.105469 124.863281 28.4375 125.152344 L 22.40625 127.835938 C 21.734375 128.140625 21.613281 128.070312 21.132812 127.277344 Z M 34.746094 135.746094 L 31.925781 137.390625 L 32.195312 137.792969 C 34.429688 137.414062 35.179688 137.335938 35.71875 138.140625 L 36.054688 138.632812 L 29.746094 142.847656 C 29.128906 143.25 28.949219 143.050781 28.355469 142.355469 L 27.933594 142.636719 L 30.503906 146.496094 L 30.929688 146.214844 C 30.515625 145.398438 30.40625 145.164062 31.019531 144.761719 L 37.328125 140.542969 L 37.652344 141.027344 C 38.191406 141.84375 37.820312 142.503906 36.613281 144.382812 L 36.882812 144.796875 L 39.476562 142.816406 Z M 43.851562 150.589844 C 44.375 150.085938 44.523438 150.097656 45.238281 150.714844 L 45.617188 150.355469 L 42.621094 147.179688 L 42.25 147.535156 C 42.796875 148.273438 42.796875 148.421875 42.25 148.921875 L 37.453125 153.453125 C 36.914062 153.945312 36.769531 153.933594 36.066406 153.34375 L 35.695312 153.6875 L 38.695312 156.867188 L 39.0625 156.519531 C 38.503906 155.769531 38.492188 155.625 39.0625 155.121094 Z M 44.53125 148.351562 C 44.980469 148.753906 45.667969 148.730469 46.085938 148.296875 C 46.5 147.863281 46.5 147.175781 46.085938 146.742188 C 45.667969 146.308594 44.980469 146.285156 44.53125 146.6875 C 44.296875 146.898438 44.160156 147.203125 44.160156 147.519531 C 44.160156 147.835938 44.296875 148.140625 44.53125 148.351562 M 42.976562 165.402344 C 44.039062 166.25 45.214844 166.609375 45.832031 165.835938 C 46.265625 165.289062 46.066406 164.652344 45.394531 164.113281 L 45.808594 163.890625 C 47.328125 165.097656 49.164062 165.34375 50.429688 163.789062 C 51.691406 162.234375 51.085938 161.128906 50.046875 159.515625 C 49.242188 158.253906 49.039062 157.636719 49.621094 156.910156 C 49.855469 156.609375 50.207031 156.425781 50.585938 156.402344 C 50.964844 156.378906 51.335938 156.519531 51.601562 156.789062 C 52.570312 157.570312 52.753906 158.972656 52.015625 159.976562 L 52.464844 160.332031 L 53.695312 158.757812 C 53.371094 157.789062 52.757812 156.945312 51.9375 156.339844 C 51.34375 155.753906 50.53125 155.445312 49.695312 155.492188 C 48.863281 155.539062 48.089844 155.9375 47.5625 156.585938 C 46.558594 157.859375 46.835938 159.113281 47.820312 160.578125 C 48.804688 162.042969 48.941406 162.648438 48.347656 163.386719 C 48.078125 163.726562 47.675781 163.929688 47.242188 163.941406 C 46.808594 163.953125 46.394531 163.769531 46.109375 163.441406 C 44.992188 162.582031 44.992188 161.207031 45.730469 159.773438 L 45.226562 159.371094 L 43.871094 161.285156 C 44.140625 162.183594 44.667969 162.984375 45.382812 163.589844 L 44.109375 164.328125 C 44.632812 164.773438 44.878906 165.097656 44.644531 165.390625 C 44.410156 165.679688 43.839844 165.613281 43.078125 165.007812 Z M 60.875 164.695312 C 61.246094 164.058594 61.390625 164.035156 62.25 164.40625 L 62.507812 163.96875 L 58.726562 161.730469 L 58.472656 162.179688 C 59.21875 162.738281 59.265625 162.871094 58.894531 163.5 L 55.539062 169.203125 C 55.171875 169.839844 55.027344 169.863281 54.175781 169.496094 L 53.917969 169.929688 L 57.699219 172.167969 L 57.957031 171.722656 C 57.207031 171.160156 57.152344 171.027344 57.519531 170.390625 Z M 60.875 162.359375 C 61.417969 162.621094 62.070312 162.410156 62.351562 161.878906 C 62.636719 161.34375 62.445312 160.683594 61.925781 160.382812 C 61.402344 160.082031 60.738281 160.246094 60.417969 160.757812 C 60.25 161.027344 60.203125 161.355469 60.289062 161.660156 C 60.378906 161.964844 60.589844 162.21875 60.875 162.359375 M 72.765625 177.269531 C 72.765625 177.371094 72.6875 177.550781 72.667969 177.59375 C 72.453125 178.210938 72.097656 178.242188 71.167969 177.996094 L 71 178.476562 L 75.472656 180.019531 L 75.640625 179.539062 C 74.949219 179.261719 74.714844 179.046875 74.835938 178.421875 L 76.222656 171.867188 C 76.445312 171.183594 76.773438 171.050781 77.609375 171.296875 L 77.777344 170.816406 L 74.636719 169.695312 C 74.503906 169.957031 74.339844 170.199219 74.144531 170.414062 L 70.53125 175.042969 L 70.429688 169.125 C 70.40625 168.835938 70.429688 168.546875 70.496094 168.265625 L 67.285156 167.144531 L 67.117188 167.636719 C 67.945312 167.960938 68.113281 168.265625 67.878906 168.945312 L 64.914062 174.953125 C 64.644531 175.523438 64.320312 175.582031 63.582031 175.367188 L 63.414062 175.847656 L 66.457031 176.898438 L 66.625 176.417969 C 65.695312 176.027344 65.507812 175.792969 65.6875 175.175781 L 65.820312 174.875 L 68.316406 170.03125 L 68.484375 177.605469 L 69.289062 177.882812 L 73.976562 171.988281 Z M 94.5 178.902344 C 95.957031 178.902344 96.59375 179.71875 96.558594 180.925781 C 96.527344 182.136719 95.855469 182.929688 94.78125 182.894531 L 94.746094 182.894531 C 93.976562 182.894531 93.695312 182.671875 93.71875 181.945312 L 93.820312 178.890625 Z M 94.367188 174.539062 C 94.875 174.492188 95.375 174.675781 95.730469 175.042969 C 96.085938 175.40625 96.253906 175.914062 96.191406 176.417969 C 96.25 176.9375 96.058594 177.453125 95.675781 177.808594 C 95.296875 178.167969 94.769531 178.324219 94.253906 178.230469 L 93.742188 178.230469 L 93.964844 174.507812 Z M 95.0625 183.488281 C 97.464844 183.566406 98.765625 182.726562 98.808594 181.039062 C 98.808594 179.585938 97.578125 178.703125 95.777344 178.578125 C 97.085938 178.488281 98.351562 177.828125 98.382812 176.464844 C 98.382812 174.898438 97.265625 174.070312 95.160156 174.003906 L 90.609375 173.859375 L 90.609375 174.359375 C 91.527344 174.507812 91.628906 174.605469 91.605469 175.335938 L 91.402344 181.921875 C 91.402344 182.660156 91.269531 182.75 90.285156 182.828125 L 90.285156 183.34375 Z M 111.316406 181.21875 C 111.40625 181.375 111.476562 181.542969 111.515625 181.722656 C 111.582031 182.148438 111.238281 182.347656 110.507812 182.480469 L 110.578125 182.984375 L 114.984375 182.347656 L 114.90625 181.832031 C 114.527344 181.832031 114.234375 181.832031 114.042969 181.453125 L 109.425781 173.511719 L 107.007812 173.867188 L 107.589844 174.863281 L 105.800781 182.695312 C 105.722656 183.074219 105.453125 183.1875 105.105469 183.308594 L 105.171875 183.8125 L 107.980469 183.398438 L 107.914062 182.894531 C 107.140625 182.964844 106.796875 182.894531 106.695312 182.449219 C 106.667969 182.273438 106.667969 182.097656 106.695312 181.921875 L 107.019531 180.457031 L 110.519531 179.953125 Z M 108.117188 175.625 L 110.21875 179.273438 L 107.210938 179.707031 Z M 124.414062 183.355469 C 125.6875 182.894531 126.652344 182.089844 126.28125 181.117188 C 126.046875 180.457031 125.398438 180.277344 124.59375 180.570312 L 124.59375 180.097656 C 126.425781 179.441406 127.613281 177.996094 126.941406 176.128906 C 126.269531 174.261719 125.03125 174.148438 123.117188 174.191406 C 121.617188 174.191406 120.980469 174.058594 120.667969 173.1875 C 120.535156 172.828125 120.5625 172.433594 120.742188 172.097656 C 120.921875 171.761719 121.234375 171.519531 121.605469 171.429688 C 122.78125 171.023438 124.070312 171.609375 124.539062 172.761719 L 125.074219 172.570312 L 124.378906 170.648438 C 123.390625 170.417969 122.351562 170.496094 121.40625 170.871094 C 120.589844 171.066406 119.898438 171.597656 119.5 172.335938 C 119.101562 173.070312 119.03125 173.941406 119.3125 174.730469 C 119.859375 176.25 121.070312 176.664062 122.847656 176.597656 C 124.625 176.53125 125.1875 176.753906 125.5 177.628906 C 125.8125 178.5 125.355469 179.195312 124.378906 179.539062 C 123.082031 180.011719 121.898438 179.292969 121.023438 177.929688 L 120.433594 178.152344 L 121.335938 180.3125 C 122.242188 180.550781 123.199219 180.527344 124.089844 180.234375 L 124.089844 181.699219 C 124.75 181.496094 125.207031 181.453125 125.277344 181.8125 C 125.34375 182.167969 125.050781 182.605469 124.15625 182.929688 Z M 136.25 169.046875 L 137.15625 165.355469 C 137.207031 164.882812 137.484375 164.464844 137.90625 164.238281 L 137.648438 163.800781 L 134.929688 165.332031 L 135.1875 165.78125 C 135.878906 165.433594 136.105469 165.433594 136.214844 165.625 C 136.304688 165.851562 136.304688 166.101562 136.214844 166.328125 L 135.097656 170.804688 L 138.507812 172.515625 C 139.0625 172.824219 139.660156 173.054688 140.277344 173.199219 L 142.757812 171.789062 L 142.503906 171.339844 C 141.910156 171.609375 141.585938 171.519531 140.847656 171.195312 Z M 133.25 168.019531 C 132.882812 167.378906 132.9375 167.246094 133.6875 166.6875 L 133.441406 166.238281 L 129.636719 168.398438 L 129.894531 168.847656 C 130.746094 168.488281 130.890625 168.511719 131.25 169.148438 L 134.503906 174.886719 C 134.875 175.523438 134.816406 175.660156 134.078125 176.207031 L 134.324219 176.652344 L 138.128906 174.496094 L 137.871094 174.046875 C 137.011719 174.417969 136.863281 174.394531 136.507812 173.757812 Z M 152.269531 163.140625 C 152.429688 163.226562 152.578125 163.335938 152.703125 163.464844 C 152.984375 163.789062 152.804688 164.136719 152.257812 164.640625 L 152.59375 165.03125 L 155.949219 162.132812 L 155.613281 161.753906 C 155.277344 161.945312 155.007812 162.066406 154.683594 161.886719 L 146.53125 157.636719 L 144.671875 159.226562 L 145.703125 159.761719 L 148.351562 167.3125 C 148.488281 167.671875 148.351562 167.90625 148.085938 168.199219 L 148.421875 168.589844 L 150.578125 166.742188 L 150.242188 166.351562 C 149.628906 166.820312 149.257812 166.945312 148.980469 166.621094 C 148.867188 166.480469 148.785156 166.320312 148.734375 166.148438 L 148.230469 164.75 L 150.914062 162.4375 Z M 146.539062 160.175781 L 150.265625 162.132812 L 147.960938 164.101562 Z M 162.863281 149.324219 L 155.488281 149.324219 L 153.589844 151.730469 L 153.980469 152.042969 C 154.316406 151.699219 154.605469 151.699219 155.300781 151.765625 L 160.535156 155.914062 C 161.09375 156.363281 161.105469 156.519531 160.625 157.300781 L 161.027344 157.625 L 163.007812 155.121094 L 162.605469 154.808594 C 161.84375 155.613281 161.597656 155.722656 161.039062 155.289062 L 156.453125 151.640625 L 165.824219 151.640625 L 166.328125 151.003906 L 159.964844 145.96875 C 159.394531 145.523438 159.382812 145.367188 159.875 144.570312 L 159.472656 144.257812 L 157.480469 146.765625 L 157.882812 147.078125 C 158.644531 146.273438 158.890625 146.160156 159.460938 146.609375 Z M 165.378906 138.003906 C 164.730469 137.667969 164.695312 137.535156 165.019531 136.652344 L 164.574219 136.417969 L 162.558594 140.296875 L 163.019531 140.535156 C 163.53125 139.761719 163.667969 139.71875 164.316406 140.050781 L 170.175781 143.09375 C 170.816406 143.429688 170.859375 143.566406 170.523438 144.4375 L 170.984375 144.671875 L 174.429688 138.027344 L 171.933594 136.183594 L 171.699219 136.628906 C 172.875 138.476562 173.1875 139.167969 172.738281 139.984375 L 172.515625 140.421875 C 172.15625 141.117188 171.832031 141.328125 171.183594 140.992188 Z M 170.972656 125.878906 C 170.277344 125.644531 170.222656 125.511719 170.421875 124.59375 L 169.941406 124.425781 L 168.523438 128.554688 L 169.003906 128.722656 C 169.40625 127.882812 169.527344 127.816406 170.222656 128.050781 L 176.464844 130.199219 C 177.144531 130.445312 177.203125 130.578125 177 131.472656 L 177.492188 131.640625 L 178.980469 127.523438 L 178.5 127.355469 C 178.085938 128.207031 177.964844 128.285156 177.28125 128.039062 Z M 172.089844 114.691406 C 172.203125 114.15625 172.070312 113.59375 171.730469 113.160156 C 171.386719 112.730469 170.875 112.472656 170.324219 112.457031 L 170.234375 113.003906 C 170.960938 113.25 171.082031 113.898438 170.972656 114.570312 C 170.859375 115.242188 170.558594 115.800781 169.785156 115.824219 L 169.707031 116.371094 C 170.242188 116.53125 170.824219 116.441406 171.285156 116.128906 C 171.746094 115.8125 172.042969 115.304688 172.089844 114.75 M 181.429688 115.140625 C 181.570312 115.496094 181.601562 115.886719 181.519531 116.257812 C 181.242188 118.039062 179.082031 118.496094 176.765625 118.195312 C 174.449219 117.890625 172.804688 116.75 173.097656 114.9375 C 173.296875 113.621094 174.273438 113.015625 175.894531 112.9375 L 175.984375 112.34375 L 173.746094 112.03125 C 173.054688 112.84375 172.617188 113.84375 172.492188 114.90625 C 172.234375 116.242188 172.550781 117.621094 173.359375 118.714844 C 174.171875 119.804688 175.402344 120.503906 176.753906 120.644531 C 178.003906 120.898438 179.300781 120.605469 180.320312 119.84375 C 181.34375 119.082031 181.992188 117.921875 182.101562 116.652344 C 182.328125 115.421875 182.207031 114.15625 181.753906 112.992188 L 179.519531 112.644531 C 178.800781 112.535156 178.722656 112.410156 178.757812 111.527344 L 178.253906 111.449219 L 177.59375 115.609375 L 178.097656 115.6875 C 178.355469 114.804688 178.464844 114.703125 179.214844 114.828125 Z M 175.445312 102.21875 C 174.71875 102.21875 174.628906 102.085938 174.550781 101.15625 L 174.035156 101.15625 L 173.902344 105.519531 L 174.417969 105.519531 C 174.550781 104.601562 174.652344 104.492188 175.378906 104.515625 L 181.980469 104.726562 C 182.707031 104.726562 182.796875 104.859375 182.875 105.777344 L 183.386719 105.777344 L 183.523438 101.414062 L 183.019531 101.414062 C 182.875 102.34375 182.773438 102.457031 182.046875 102.433594 Z M 175.445312 102.21875 "/>
</g>
</svg>
